HIERARCHY
ROOT Hips
{
	OFFSET 0.000000 0.000000 0.000000
	CHANNELS 6 Xposition Yposition Zposition Zrotation Yrotation Xrotation 
	JOINT LowerBack
	{
		OFFSET 0.000000 0.000000 0.000000
		CHANNELS 3 Zrotation Yrotation Xrotation
		JOINT Spine
		{
			OFFSET 0.028270 2.035590 -0.193380
			CHANNELS 3 Zrotation Yrotation Xrotation
			JOINT Spine1
			{
				OFFSET 0.056720 2.048850 -0.042750
				CHANNELS 3 Zrotation Yrotation Xrotation
				JOINT Neck
				{
					OFFSET 0.000000 0.000000 0.000000
					CHANNELS 3 Zrotation Yrotation Xrotation
					JOINT Neck1
					{
						OFFSET -0.054170 1.746240 0.172020
						CHANNELS 3 Zrotation Yrotation Xrotation
						JOINT Head
						{
							OFFSET 0.104070 1.761360 -0.123970
							CHANNELS 3 Zrotation Yrotation Xrotation
							End Site
							{
								OFFSET 0.000000 0.000000 0.000000
							}
						}
					}
				}
				JOINT LeftShoulder
				{
					OFFSET 0.000000 0.000000 0.000000
					CHANNELS 3 Zrotation Yrotation Xrotation
					JOINT LeftArm
					{
						OFFSET 3.362410 1.200890 -0.311210
						CHANNELS 3 Zrotation Yrotation Xrotation
						JOINT LeftForeArm
						{
							OFFSET 4.983000 -0.000000 -0.000000
							CHANNELS 3 Zrotation Yrotation Xrotation
							JOINT LeftHand
							{
								OFFSET 3.483560 -0.000000 -0.000000
								CHANNELS 3 Zrotation Yrotation Xrotation
								JOINT LeftFingerBase
								{
									OFFSET 0.000000 0.000000 0.000000
									CHANNELS 3 Zrotation Yrotation Xrotation
									JOINT LeftHandIndex1
									{
										OFFSET 0.715260 -0.000000 -0.000000
										CHANNELS 3 Zrotation Yrotation Xrotation
										End Site
										{
											OFFSET 0.000000 0.000000 0.000000
										}
									}
								}
								JOINT LThumb
								{
									OFFSET 0.000000 0.000000 0.000000
									CHANNELS 3 Zrotation Yrotation Xrotation
									End Site
									{
										OFFSET 0.000000 0.000000 0.000000
									}
								}
							}
						}
					}
				}
				JOINT RightShoulder
				{
					OFFSET 0.000000 0.000000 0.000000
					CHANNELS 3 Zrotation Yrotation Xrotation
					JOINT RightArm
					{
						OFFSET -3.136600 1.374050 -0.404650
						CHANNELS 3 Zrotation Yrotation Xrotation
						JOINT RightForeArm
						{
							OFFSET -5.241900 -0.000000 -0.000000
							CHANNELS 3 Zrotation Yrotation Xrotation
							JOINT RightHand
							{
								OFFSET -3.444170 -0.000000 -0.000000
								CHANNELS 3 Zrotation Yrotation Xrotation
								JOINT RightFingerBase
								{
									OFFSET 0.000000 0.000000 0.000000
									CHANNELS 3 Zrotation Yrotation Xrotation
									JOINT RightHandIndex1
									{
										OFFSET -0.622530 -0.000000 -0.000000
										CHANNELS 3 Zrotation Yrotation Xrotation
										End Site
										{
											OFFSET 0.000000 0.000000 0.000000
										}
									}
								}
								JOINT RThumb
								{
									OFFSET 0.000000 0.000000 0.000000
									CHANNELS 3 Zrotation Yrotation Xrotation
									End Site
									{
										OFFSET 0.000000 0.000000 0.000000
									}
								}
							}
						}
					}
				}
			}
		}
	}
}
}
MOTION
Frames: 9
Frame Time: 0.008333
3.460977 17.610881 1.194004 30.537985 84.109272 50.425601 1.526266 0.426743 1.603355 -0.540758 0.321157 -2.493899 -5.956995 0.258979 1.137487 7.144878 0.176469 -3.228788 -3.597192 -0.304362 1.010779 0.000000 0.000000 0.000000 -2.070548 6.335552 3.154214 -41.309245 4.229792 18.905007 -4.358773 -37.773309 -0.018467 -12.669244 -0.490333 0.043779 -0.170185 -0.095960 -0.000000 0.000000 0.000000 0.000000 0.000000 0.000000 0.000000 13.435487 3.029872 1.133984 53.778523 24.513650 21.013817 2.293320 46.752753 0.019123 4.100526 13.349615 0.488082 0.009562 -0.224213 0.000000 0.000000 0.000000 0.000000 0.000000 0.000000 0.000000 
3.665442 17.591668 1.215982 27.287848 83.789853 47.179042 1.306992 0.610291 1.574697 -0.552812 0.522207 -2.497636 -5.779647 0.460278 1.156013 6.737712 0.162666 -3.259936 -3.469944 -0.296174 1.004922 0.000000 0.000000 0.000000 -2.529737 6.800595 3.086844 -41.645413 4.943809 18.721392 -4.434278 -36.826728 -0.020106 -12.662536 -0.321485 0.024731 -0.173400 -0.100856 -0.000000 0.000000 0.000000 0.000000 0.000000 0.000000 0.000000 12.466881 3.208988 1.110685 53.279667 25.612941 22.242040 2.173785 48.375714 0.018711 3.976476 13.257469 0.470676 0.006950 -0.234283 -0.000000 0.000000 0.000000 0.000000 0.000000 0.000000 0.000000 
3.870726 17.564119 1.235425 23.755741 83.469147 43.657105 1.152595 0.791109 1.534826 -0.551973 0.716498 -2.500882 -5.601183 0.655121 1.182051 6.318766 0.152308 -3.300758 -3.339257 -0.287600 0.996935 0.000000 0.000000 0.000000 -2.989196 7.319787 3.016090 -41.979071 5.658989 18.487621 -4.502877 -35.943458 -0.021619 -12.652397 -0.149374 0.005285 -0.176192 -0.105087 -0.000000 0.000000 0.000000 0.000000 0.000000 0.000000 0.000000 11.468068 3.386250 1.082421 52.717005 26.730283 23.351796 2.054163 49.975291 0.018243 3.862631 13.166681 0.454766 0.004137 -0.244195 -0.000000 0.000000 0.000000 0.000000 0.000000 0.000000 0.000000 
4.076989 17.528768 1.252262 19.983150 83.136528 39.894610 1.062782 0.969214 1.491818 -0.538646 0.904298 -2.502233 -5.422736 0.843728 1.214423 5.891627 0.144955 -3.351768 -3.206867 -0.278728 0.986555 0.000000 0.000000 0.000000 -3.448546 7.886644 2.942485 -42.319277 6.380440 18.182037 -4.565142 -35.119294 -0.022999 -12.639160 0.025001 -0.014159 -0.178590 -0.108652 -0.000000 0.000000 0.000000 0.000000 0.000000 0.000000 0.000000 10.451543 3.559897 1.051103 52.082091 27.868663 24.343177 1.935163 51.539404 0.017728 3.763303 13.083076 0.440953 0.001036 -0.253925 -0.000000 0.000000 0.000000 0.000000 0.000000 0.000000 0.000000 
4.284286 17.486266 1.266501 16.030256 82.782806 35.941917 1.036302 1.143230 1.457910 -0.513054 1.084657 -2.498921 -5.244857 1.025174 1.254034 5.459805 0.147716 -3.415569 -3.073763 -0.269550 0.972822 0.000000 0.000000 0.000000 -3.903863 8.519104 2.867875 -42.678101 7.074776 17.795277 -4.623299 -34.328137 -0.024181 -12.621448 0.194505 -0.032999 -0.180714 -0.111388 -0.000000 0.000000 0.000000 0.000000 0.000000 0.000000 0.000000 9.424802 3.735687 1.015239 51.373280 29.022911 25.204369 1.816673 53.058632 0.017149 3.689127 13.012076 0.430636 -0.002618 -0.263452 -0.000000 0.000000 0.000000 0.000000 0.000000 0.000000 0.000000 
4.492693 17.437355 1.278399 12.072717 82.402877 31.964009 1.059854 1.310489 1.443428 -0.478054 1.255930 -2.490760 -5.070102 1.197628 1.294178 5.031413 0.152514 -3.488076 -2.942996 -0.260332 0.956821 0.000000 0.000000 0.000000 -4.358285 9.166540 2.792895 -43.052785 7.806244 17.293043 -4.676153 -33.599197 -0.025244 -12.603999 0.364779 -0.051738 -0.182505 -0.113554 -0.000000 0.000000 0.000000 0.000000 0.000000 0.000000 0.000000 8.412831 3.903570 0.981774 50.577593 30.198503 25.943653 1.700202 54.519444 0.016531 3.634904 12.956442 0.423313 -0.006718 -0.272816 -0.000000 0.000000 0.000000 0.000000 0.000000 0.000000 0.000000 
4.702210 17.382805 1.288293 8.273835 81.998514 28.113838 1.117973 1.466871 1.460386 -0.436227 1.415235 -2.475497 -4.899121 1.358194 1.334792 4.613238 0.163312 -3.570826 -2.815612 -0.251096 0.937889 0.000000 0.000000 0.000000 -4.805798 9.836610 2.719972 -43.449395 8.543055 16.678516 -4.725986 -32.908518 -0.026143 -12.586525 0.528831 -0.069675 -0.184073 -0.115043 -0.000000 0.000000 0.000000 0.000000 0.000000 0.000000 0.000000 7.427509 4.065428 0.949603 49.695724 31.383686 26.545701 1.585528 55.916364 0.015856 3.608211 12.913697 0.419586 -0.011495 -0.281995 -0.000000 0.000000 0.000000 0.000000 0.000000 0.000000 0.000000 
4.912833 17.323431 1.296618 4.811259 81.580284 24.563607 1.187606 1.607289 1.515113 -0.391753 1.558974 -2.452629 -4.733256 1.503189 1.373913 4.213610 0.178115 -3.663097 -2.693161 -0.241954 0.916085 0.000000 0.000000 0.000000 -5.242230 10.515202 2.651005 -43.866175 9.283699 15.952679 -4.773921 -32.250555 -0.026880 -12.570784 0.684316 -0.086608 -0.185473 -0.115902 -0.000000 0.000000 0.000000 0.000000 0.000000 0.000000 0.000000 6.485863 4.216740 0.920078 48.727561 32.570432 27.004526 1.473221 57.241580 0.015130 3.609982 12.882432 0.419753 -0.017011 -0.291001 0.000000 0.000000 0.000000 0.000000 0.000000 0.000000 0.000000 
5.124509 17.260077 1.304001 1.854494 81.165754 21.486019 1.239217 1.726652 1.604194 -0.350430 1.683559 -2.423992 -4.574383 1.628908 1.407817 3.841735 0.193199 -3.761209 -2.577644 -0.233105 0.892378 0.000000 0.000000 0.000000 -5.665049 11.170667 2.587378 -44.295463 10.049105 15.116578 -4.820415 -31.634579 -0.027504 -12.560300 0.832867 -0.102640 -0.186729 -0.116297 -0.000000 0.000000 0.000000 0.000000 0.000000 0.000000 0.000000 5.608296 4.351579 0.896355 47.672716 33.747440 27.317427 1.364339 58.489204 0.014365 3.638259 12.859821 0.423214 -0.023224 -0.299859 0.000000 0.000000 0.000000 0.000000 0.000000 0.000000 0.000000 
